<svg width="30" height="30" viewBox="0 0 30 30" fill="none" xmlns="http://www.w3.org/2000/svg">
    <g clip-path="url(#clip0_6_51)">
        <path d="M7.47043 7.5166H0.0168457V22.4562H7.47043V7.5166Z" fill="white"/>
        <path d="M16.8601 7.52173H9.40649V22.4612H16.8601V7.52173Z" fill="white"/>
        <path d="M28.4826 21.2479L21.3473 23.1841C21.0857 22.2173 20.835 21.2931 20.5857 20.3686C19.9996 18.1954 19.4144 16.0221 18.8299 13.8488C18.7996 13.7491 18.7823 13.6459 18.7784 13.5417C18.7753 11.8651 18.7748 10.1886 18.7769 8.51228C18.7769 8.47479 18.7834 8.43729 18.7896 8.37002L24.6163 6.79419L28.4826 21.2479Z" fill="white"/>
        <path d="M0.018954 24.3761H0.327939C2.60527 24.3761 4.88261 24.3805 7.15995 24.3704C7.42493 24.3691 7.49628 24.4435 7.49285 24.705C7.47871 25.7994 7.48655 26.8941 7.48713 27.9887C7.48713 28.6376 7.309 29.2061 6.77045 29.6207C6.44876 29.8644 6.05431 29.9928 5.65067 29.9852C4.29834 29.9882 2.94516 29.9966 1.59381 29.9545C0.790559 29.9296 0.0647869 29.2637 0.033774 28.47C-0.0189824 27.1219 0.0192404 25.7702 0.0192404 24.3763" fill="white"/>
        <path d="M9.42276 24.3937H16.8292C16.8481 24.4268 16.8651 24.4427 16.8652 24.4585C16.8682 25.6959 16.9003 26.9341 16.8627 28.1702C16.829 29.2778 16.1658 29.9442 15.0265 29.9786C13.6753 30.0194 12.3206 29.9969 10.9691 29.9531C10.1508 29.9266 9.43203 29.2094 9.40919 28.4007C9.3724 27.0976 9.39483 25.7927 9.39352 24.4886C9.39924 24.4558 9.40906 24.424 9.42276 24.3937Z" fill="white"/>
        <path d="M9.38818 5.5853C9.38818 4.85043 9.38686 4.13768 9.38858 3.42475C9.39001 2.84415 9.38131 2.26303 9.40168 1.68306C9.41527 1.24047 9.59926 0.820183 9.91533 0.509728C10.2314 0.199272 10.6552 0.0225839 11.0984 0.0164628C12.3561 -0.000112803 13.6141 0.00760344 14.872 0.00891806C16.1159 0.0102327 16.8226 0.645594 16.8648 1.89088C16.9057 3.09833 16.8713 4.30829 16.869 5.51711C16.8634 5.54093 16.8544 5.56383 16.8423 5.58513L9.38818 5.5853Z" fill="white"/>
        <path d="M0.000629291 5.58415C0.000629291 4.97502 -0.000800948 4.38613 0.000972856 3.79724C0.00308998 3.10255 -0.0085258 2.40723 0.015678 1.71322C0.0500097 0.73309 0.78013 0.0249102 1.76659 0.0145076C3.01467 0.00136142 4.26365 0.0339411 5.51098 0.00101847C6.53704 -0.0260741 7.45999 0.659757 7.46365 1.74666C7.46789 3.01961 7.46462 4.29256 7.46462 5.58415H0.000629291Z" fill="white"/>
        <path d="M21.8196 25.0223L29.0125 23.0995C29.1445 23.589 29.2769 24.0712 29.4045 24.5546C29.5739 25.1968 29.7384 25.8403 29.9073 26.4826C30.2233 27.6851 29.7242 28.6012 28.5258 28.9522C27.3957 29.2833 26.259 29.5924 25.1201 29.8922C24.0197 30.1817 23.1111 29.7026 22.7783 28.6025C22.4244 27.4327 22.1426 26.2412 21.8196 25.0223Z" fill="white"/>
        <path d="M18.7903 6.417V0.643538C19.2697 0.512077 19.7596 0.372899 20.2521 0.243837C20.5736 0.159644 20.8953 0.0520743 21.2231 0.0209235C22.1684 -0.0691564 22.8922 0.406793 23.1815 1.37012C23.5334 2.54219 23.8195 3.73392 24.1444 4.95606L18.7903 6.417Z" fill="white"/>
    </g>
    <defs>
        <clipPath id="clip0_6_51">
            <rect width="30" height="30" fill="white"/>
        </clipPath>
    </defs>
</svg>