<svg width="23" height="30" viewBox="0 0 23 30" fill="none" xmlns="http://www.w3.org/2000/svg">
    <g clip-path="url(#clip0_6_64)">
        <path d="M5.625 0C4.58789 0 3.75 0.837891 3.75 1.875V7.5H7.5V1.875C7.5 0.837891 6.66211 0 5.625 0ZM16.875 0C15.8379 0 15 0.837891 15 1.875V7.5H18.75V1.875C18.75 0.837891 17.9121 0 16.875 0ZM1.875 9.375C0.837891 9.375 0 10.2129 0 11.25C0 12.2871 0.837891 13.125 1.875 13.125V15C1.875 19.5352 5.09766 23.3203 9.375 24.1875V28.125C9.375 29.1621 10.2129 30 11.25 30C12.2871 30 13.125 29.1621 13.125 28.125V24.1875C17.4023 23.3203 20.625 19.5352 20.625 15V13.125C21.6621 13.125 22.5 12.2871 22.5 11.25C22.5 10.2129 21.6621 9.375 20.625 9.375H1.875Z" fill="white"/>
    </g>
    <defs>
        <clipPath id="clip0_6_64">
            <rect width="22.5" height="30" fill="white"/>
        </clipPath>
    </defs>
</svg>